<?xml version="1.0" encoding="UTF-8" standalone="no"?>
<svg
   xmlns:dc="http://purl.org/dc/elements/1.1/"
   xmlns:cc="http://creativecommons.org/ns#"
   xmlns:rdf="http://www.w3.org/1999/02/22-rdf-syntax-ns#"
   xmlns:svg="http://www.w3.org/2000/svg"
   xmlns="http://www.w3.org/2000/svg"
   xmlns:sodipodi="http://sodipodi.sourceforge.net/DTD/sodipodi-0.dtd"
   xmlns:inkscape="http://www.inkscape.org/namespaces/inkscape"
   width="210mm"
   height="210mm"
   viewBox="0 0 210 210"
   version="1.1"
   id="svg8"
   inkscape:version="1.0.2-2 (e86c870879, 2021-01-15)"
   sodipodi:docname="ganesh.svg"
   inkscape:export-xdpi="30.963808"
   inkscape:export-ydpi="30.963808">
  <title
     id="title87">Ganesh</title>
  <defs
     id="defs2">
    <inkscape:path-effect
       effect="skeletal"
       id="path-effect75"
       is_visible="true"
       lpeversion="1"
       pattern="M 0,5 C 0,2.24 2.24,0 5,0 7.76,0 10,2.24 10,5 10,7.76 7.76,10 5,10 2.24,10 0,7.76 0,5 Z"
       copytype="single_stretched"
       prop_scale="-2.26271"
       scale_y_rel="false"
       spacing="0"
       normal_offset="0"
       tang_offset="0"
       prop_units="false"
       vertical_pattern="false"
       hide_knot="false"
       fuse_tolerance="0" />
    <inkscape:path-effect
       effect="skeletal"
       id="path-effect42"
       is_visible="true"
       lpeversion="1"
       pattern="M 0,5 C 0,2.24 2.24,0 5,0 7.76,0 10,2.24 10,5 10,7.76 7.76,10 5,10 2.24,10 0,7.76 0,5 Z"
       copytype="single_stretched"
       prop_scale="1"
       scale_y_rel="false"
       spacing="0"
       normal_offset="0"
       tang_offset="0"
       prop_units="false"
       vertical_pattern="false"
       hide_knot="false"
       fuse_tolerance="0" />
    <inkscape:path-effect
       effect="skeletal"
       id="path-effect38"
       is_visible="true"
       lpeversion="1"
       pattern="m 0,13.774381 c 0,-2.472986 2.24,-4.4800474 5,-4.4800474 2.76,0 5,2.0070614 5,4.4800474 0,2.472987 -2.24,4.480048 -5,4.480048 -2.76,0 -5,-2.007061 -5,-4.480048 z"
       copytype="single_stretched"
       prop_scale="-2.2627135"
       scale_y_rel="false"
       spacing="0"
       normal_offset="0"
       tang_offset="0"
       prop_units="false"
       vertical_pattern="false"
       hide_knot="false"
       fuse_tolerance="0" />
    <inkscape:path-effect
       effect="skeletal"
       id="path-effect34"
       is_visible="true"
       lpeversion="1"
       pattern="M 0,5 C 0,2.24 2.24,0 5,0 7.76,0 10,2.24 10,5 10,7.76 7.76,10 5,10 2.24,10 0,7.76 0,5 Z"
       copytype="single_stretched"
       prop_scale="1"
       scale_y_rel="false"
       spacing="0"
       normal_offset="0"
       tang_offset="0"
       prop_units="false"
       vertical_pattern="false"
       hide_knot="false"
       fuse_tolerance="0" />
  </defs>
  <sodipodi:namedview
     id="base"
     pagecolor="#ffffff"
     bordercolor="#666666"
     borderopacity="1.0"
     inkscape:pageopacity="1"
     inkscape:pageshadow="2"
     inkscape:zoom="1.0629657"
     inkscape:cx="474.21547"
     inkscape:cy="309.61177"
     inkscape:document-units="mm"
     inkscape:current-layer="layer1"
     inkscape:document-rotation="0"
     showgrid="false"
     inkscape:object-paths="true"
     inkscape:snap-intersection-paths="true"
     inkscape:snap-object-midpoints="false"
     inkscape:window-width="1920"
     inkscape:window-height="1017"
     inkscape:window-x="-8"
     inkscape:window-y="1192"
     inkscape:window-maximized="1"
     units="mm"
     inkscape:pagecheckerboard="false"
     borderlayer="false"
     inkscape:showpageshadow="true"
     showborder="true" />
  <metadata
     id="metadata5">
    <rdf:RDF>
      <cc:Work
         rdf:about="">
        <dc:format>image/svg+xml</dc:format>
        <dc:type
           rdf:resource="http://purl.org/dc/dcmitype/StillImage" />
        <dc:title>Ganesh</dc:title>
        <dc:creator>
          <cc:Agent>
            <dc:title>Sixense Platform Solutions</dc:title>
          </cc:Agent>
        </dc:creator>
      </cc:Work>
    </rdf:RDF>
  </metadata>
  <g
     inkscape:label="Calque 1"
     inkscape:groupmode="layer"
     id="layer1">
    <ellipse
       style="fill:#d90027;fill-opacity:1;stroke-width:0.23948"
       id="path48"
       cx="91.746811"
       cy="59.37925"
       rx="12.35337"
       ry="12.222214" />
    <path
       style="fill:#244891;fill-opacity:1;stroke-width:0.565287"
       d="M 44.536867,167.34887 C 31.452065,136.71921 30.247059,100.49 35.69436,70.941445 41.227699,46.158252 65.742076,21.775016 87.200388,17.33536 c 25.273252,-3.015668 38.510312,-1.911182 56.211272,5.251176 11.92759,8.605425 24.38388,13.074719 9.9216,20.092699 C 138.32806,33.708879 129.33023,26.278639 115.74435,25.970214 95.04258,25.538404 84.755702,25.824089 68.83812,40.502879 57.370733,49.595942 54.068086,61.897458 49.612729,74.13056 c -6.28109,23.283689 -2.215951,42.9048 0.764436,66.31958 7.727964,24.37869 17.489808,44.05466 45.658513,43.6513 13.879592,0.0721 22.191272,-3.78268 32.044332,-10.44896 6.50903,-4.40379 10.72992,-15.90676 12.13956,-23.46554 v 0 c 0.41178,-11.27591 -2.11306,-17.65849 -8.29564,-26.33765 -8.9072,-10.52387 -11.77464,-12.39384 -24.86767,-12.07258 -11.59969,0.48711 -20.177151,5.4295 -24.979945,14.0396 -1.854518,17.9913 7.843781,29.88639 25.266615,27.15163 9.65575,-0.99154 10.11543,-12.73038 3.22485,-13.98265 -4.7313,-0.95148 -8.94897,-0.20357 -13.63027,0.52857 0,0 -7.036459,-6.24677 -0.04424,-12.14375 0.628456,-0.53002 11.43313,0.63631 17.50527,0.31723 14.01563,3.02772 16.95395,22.85237 3.64664,32.31479 -16.96026,10.69636 -33.810237,6.29784 -44.446555,-9.32095 -2.522948,-8.78714 -2.384693,-15.43359 -2.65367,-24.45557 3.297099,-10.51146 7.825898,-16.47565 16.762359,-22.17461 9.397125,-2.86768 18.119286,-3.71241 27.781236,-4.58118 27.11247,1.46842 42.22943,37.07093 37.80302,56.49857 -4.19184,19.86127 -18.36532,31.84863 -37.21038,37.80128 -6.69555,2.02846 -16.618134,3.26667 -25.996842,3.2441 -23.129359,-0.93076 -32.676205,-12.45636 -45.547479,-29.6649 z"
       id="path66"
       sodipodi:nodetypes="ccccccccccsscccccccsccccccccccc" />
  </g>
</svg>
